# xmcd CD database file
#
# Track frame offsets:
#	150
#	11265
#	25843
#	39724
#	56096
#	78566
#	92451
#	106119
#	119076
#	131803
#	152015
#	180396
#	194624
#	206375
#	220278
#	240438
#	254884
#	269566
#
# Disc length: 3771 seconds
#
# Revision: 0
# Processed by: cddbd v1.5.1PL0 Copyright (c) Steve Scherf et al.
# Submitted via: CDex 1.51
#
DISCID=000eb912
DTITLE=Ella Fitzgerald - Vocal Jazz
DYEAR=1900
DGENRE=Jazz
TTITLE0=Flying Home
TTITLE1=How High The moon
TTITLE2=Basin Street Blues
TTITLE3=Moonlight in Vermont
TTITLE4=Tenderly
TTITLE5=Smooth Saling
TTITLE6=Air Mail Special
TTITLE7=Angel Eyes
TTITLE8=Lullaby of Birdland
TTITLE9=A Foggy Day
TTITLE10=April in Paris
TTITLE11=Oh Lady Be Good
TTITLE12=A-Tisket, A-Tasket
TTITLE13=Bei Mir Bist Du Schon
TTITLE14=I Want To Be Happy
TTITLE15=The Dipsy Doodle
TTITLE16=Undecided
TTITLE17=Cow Cow Boogie
EXTD=
EXTT0=
EXTT1=
EXTT2=
EXTT3=
EXTT4=
EXTT5=
EXTT6=
EXTT7=
EXTT8=
EXTT9=
EXTT10=
EXTT11=
EXTT12=
EXTT13=
EXTT14=
EXTT15=
EXTT16=
EXTT17=
PLAYORDER=
